<svg width="20" height="20" viewBox="0 0 20 20" fill="none" xmlns="http://www.w3.org/2000/svg">
<path d="M13.1891 15.6572C13.3446 15.6572 13.4771 15.6025 13.5866 15.493C13.6955 15.3841 13.7499 15.2519 13.7499 15.0963C13.7499 14.9402 13.6955 14.8077 13.5866 14.6988C13.4777 14.5894 13.3452 14.5347 13.1891 14.5347C13.033 14.5347 12.9005 14.5894 12.7916 14.6988C12.6827 14.8083 12.6283 14.9408 12.6283 15.0963C12.6283 15.2519 12.6827 15.3841 12.7916 15.493C12.9005 15.6025 13.033 15.6572 13.1891 15.6572ZM14.9999 15.6572C15.1555 15.6572 15.288 15.6025 15.3974 15.493C15.5063 15.3841 15.5608 15.2519 15.5608 15.0963C15.5608 14.9402 15.5063 14.8077 15.3974 14.6988C15.2885 14.5894 15.156 14.5347 14.9999 14.5347C14.8438 14.5347 14.7113 14.5894 14.6024 14.6988C14.4935 14.8083 14.4391 14.9408 14.4391 15.0963C14.4391 15.2519 14.4935 15.3841 14.6024 15.493C14.7113 15.6025 14.8438 15.6572 14.9999 15.6572ZM16.8108 15.6572C16.9663 15.6572 17.0988 15.6025 17.2083 15.493C17.3171 15.3841 17.3716 15.2519 17.3716 15.0963C17.3716 14.9402 17.3171 14.8077 17.2083 14.6988C17.0994 14.5894 16.9669 14.5347 16.8108 14.5347C16.6546 14.5347 16.5221 14.5894 16.4133 14.6988C16.3044 14.8083 16.2499 14.9408 16.2499 15.0963C16.2499 15.2519 16.3044 15.3841 16.4133 15.493C16.5221 15.6025 16.6546 15.6572 16.8108 15.6572ZM4.67992 16.6663C4.30659 16.6663 3.98881 16.5352 3.72659 16.273C3.46436 16.0108 3.33325 15.6933 3.33325 15.3205V4.67884C3.33325 4.30662 3.46436 3.98912 3.72659 3.72634C3.98881 3.46412 4.30659 3.33301 4.67992 3.33301H15.3208C15.693 3.33301 16.0105 3.46412 16.2733 3.72634C16.5355 3.98856 16.6666 4.30634 16.6666 4.67967V9.63801C16.5205 9.58745 16.3805 9.54634 16.2466 9.51467C16.1133 9.48356 15.9755 9.45245 15.8333 9.42134V4.67967C15.8333 4.55134 15.7799 4.43356 15.6733 4.32634C15.5666 4.21912 15.4488 4.16579 15.3199 4.16634H4.67992C4.55159 4.16634 4.43381 4.21967 4.32659 4.32634C4.21936 4.43301 4.16603 4.55079 4.16659 4.67967V15.3205C4.16659 15.4483 4.21992 15.5658 4.32659 15.673C4.43325 15.7802 4.55075 15.8336 4.67909 15.833H9.40075C9.42075 15.9886 9.44658 16.1333 9.47825 16.2672C9.50992 16.4005 9.55075 16.5336 9.60075 16.6663H4.67992ZM4.16659 14.9997V15.833V4.16634V9.42134V9.35884V14.9997ZM6.24992 13.558H9.54992C9.58047 13.4152 9.62214 13.2772 9.67492 13.1438L9.84159 12.7238H6.24992V13.558ZM6.24992 10.4163H11.7333C12.0071 10.2241 12.2769 10.0613 12.5424 9.92801C12.808 9.79412 13.093 9.68912 13.3974 9.61301V9.58301H6.24992V10.4163ZM6.24992 7.27467H13.7499V6.44134H6.24992V7.27467ZM14.9999 18.4305C14.0716 18.4305 13.2841 18.1069 12.6374 17.4597C11.9902 16.8125 11.6666 16.0247 11.6666 15.0963C11.6666 14.168 11.9902 13.3802 12.6374 12.733C13.2846 12.0858 14.0721 11.7625 14.9999 11.763C15.9277 11.7636 16.7155 12.0869 17.3633 12.733C18.011 13.3791 18.3344 14.1669 18.3333 15.0963C18.3333 16.0241 18.0099 16.8116 17.3633 17.4588C16.7155 18.1061 15.9277 18.4297 14.9999 18.4297" fill="#002B2E"/>
</svg>
