<svg width="6" height="56" viewBox="0 0 6 56" fill="none" xmlns="http://www.w3.org/2000/svg">
<path d="M3.23588 54.6985C3.29075 54.855 3.29075 54.855 3.34673 55.0146C3.38913 55.1335 3.38913 55.1335 3.43239 55.2547C3.58435 55.2982 3.7363 55.3417 3.89285 55.3865C4.27011 53.8469 4.57675 52.2702 4.85196 50.6722C4.89664 50.4136 4.94215 50.1554 4.98768 49.8972C5.01641 49.7314 5.04509 49.5656 5.07372 49.3997C5.09941 49.2519 5.1251 49.1041 5.15157 48.9519C5.20223 48.5788 5.20223 48.5788 5.16256 48.1587C5.22395 48.1377 5.28533 48.1168 5.34857 48.0952C5.56173 47.3646 5.59225 46.7607 5.33627 45.931C5.0931 45.836 4.92943 45.7761 4.71174 45.87C4.46951 46.1449 4.3958 46.5211 4.30021 46.9264C4.27979 47.0062 4.25937 47.0859 4.23833 47.1681C4.09236 47.7621 4.09236 47.7621 4.19287 48.0563C4.13148 48.0773 4.0701 48.0982 4.00686 48.1198C3.80132 47.626 3.76901 47.264 3.76457 46.7564C3.75437 46.4457 3.71989 46.1445 3.67981 45.83C3.59235 45.1074 3.5323 44.3925 3.48111 43.6737C3.46675 43.4753 3.46675 43.4753 3.45209 43.2728C3.33402 41.6114 3.23784 39.9536 3.14343 38.296C3.13484 38.1463 3.12626 37.9967 3.11741 37.8425C3.0926 37.4087 3.0681 36.9749 3.04376 36.5412C3.03297 36.3506 3.03297 36.3506 3.02197 36.1562C2.92232 34.3512 2.87079 32.5555 2.8149 30.759C2.80666 30.4961 2.79827 30.2331 2.78974 29.9702C2.71858 27.7758 2.68911 25.5998 2.73008 23.4335C2.74345 22.7208 2.74328 22.0052 2.74157 21.2884C2.73897 20.0497 2.75708 18.8374 2.84455 17.6268C2.87724 17.0861 2.88693 16.5432 2.89203 15.994C2.90416 14.8009 2.9657 13.629 3.04005 12.456C3.04972 12.2994 3.05939 12.1427 3.06936 11.9813C3.2053 9.87743 3.36518 7.75484 3.72059 5.74571C3.80052 5.25764 3.80052 5.25764 3.71207 4.99874C3.77346 4.97777 3.83484 4.9568 3.89808 4.9352C3.96703 4.58544 4.02512 4.23883 4.07651 3.88043C4.09181 3.77635 4.1071 3.67227 4.12286 3.56504C4.15359 3.35539 4.18405 3.14561 4.21424 2.9357C4.25183 2.68396 4.2946 2.4348 4.33833 2.1862C4.51502 1.14481 4.51502 1.14481 4.34784 0.589467C4.15705 0.220982 4.15705 0.220982 3.7896 0.0574018C3.45258 0.184038 3.30436 0.305882 3.14641 0.701757C3.10695 0.861559 3.069 1.02232 3.03189 1.18358C3.00231 1.29374 2.97274 1.40391 2.94227 1.51742C2.70372 2.42041 2.52361 3.34382 2.36287 4.29136C2.2967 4.67811 2.22479 5.06014 2.14987 5.44207C1.68671 7.99442 1.47356 10.7476 1.40861 13.4631C1.40076 13.7505 1.38964 14.0365 1.37783 14.3226C1.3165 15.8641 1.29792 17.4163 1.28717 18.9726C1.28635 19.0749 1.28554 19.1772 1.2847 19.2826C1.27623 20.3984 1.28294 21.5104 1.33321 22.6403C1.35339 23.1373 1.35365 23.6271 1.35097 24.1186C1.35082 30.4541 1.68657 36.8867 2.33745 43.336C2.38125 43.7717 2.42399 44.2074 2.46696 44.643C2.61804 46.1557 2.78425 47.6628 3.01892 49.1801C2.72769 48.6819 2.56345 48.1673 2.38405 47.6127C2.31295 47.3977 2.24176 47.1828 2.17049 46.9679C2.05893 46.6301 1.94796 46.2921 1.83847 45.9536C1.73229 45.6263 1.62379 45.2998 1.51486 44.9733C1.46669 44.8215 1.46669 44.8215 1.41755 44.6666C1.26088 44.2027 1.15702 43.9465 0.82854 43.6349C0.563923 43.5138 0.563923 43.5138 0.319218 43.6336C0.232053 43.717 0.232053 43.717 0.143125 43.8021C0.180587 44.199 0.23697 44.4125 0.371203 44.789C0.41149 44.903 0.451776 45.0171 0.493283 45.1346C0.559352 45.3198 0.559352 45.3198 0.626755 45.5088C0.720069 45.7742 0.813249 46.0396 0.906311 46.3051C0.955003 46.4438 1.0037 46.5825 1.05386 46.7255C1.97061 49.3454 2.344 52.174 3.23588 54.6985Z" fill="#3C6E71"/>
</svg>
