<svg width="18" height="18" viewBox="0 0 18 18" fill="none" xmlns="http://www.w3.org/2000/svg">
<path d="M1.08337 5.82217C1.17004 4.07217 1.42921 2.98051 2.20587 2.20551C2.98087 1.42884 4.07254 1.16967 5.82254 1.08301M16.9167 5.82217C16.83 4.07217 16.5709 2.98051 15.7942 2.20551C15.0192 1.42884 13.9275 1.16967 12.1775 1.08301M12.1775 16.9163C13.9275 16.8297 15.0192 16.5705 15.7942 15.7938C16.5709 15.0188 16.83 13.9272 16.9167 12.1772M5.82254 16.9163C4.07254 16.8297 2.98087 16.5705 2.20587 15.7938C1.42921 15.0188 1.17004 13.9272 1.08337 12.1772M15.3625 8.43134C15.565 8.68467 15.6667 8.81217 15.6667 8.99967C15.6667 9.18717 15.565 9.31467 15.3625 9.56801C14.4517 10.708 12.1259 13.1663 9.00004 13.1663C5.87421 13.1663 3.54837 10.708 2.63754 9.56801C2.43504 9.31467 2.33337 9.18717 2.33337 8.99967C2.33337 8.81217 2.43504 8.68467 2.63754 8.43134C3.54837 7.29134 5.87421 4.83301 9.00004 4.83301C12.1259 4.83301 14.4517 7.29134 15.3625 8.43134Z" stroke="#002B2E" stroke-width="1.25" stroke-linecap="round" stroke-linejoin="round"/>
<path d="M10.6668 8.99967C10.6668 8.55765 10.4912 8.13372 10.1787 7.82116C9.86611 7.5086 9.44219 7.33301 9.00016 7.33301C8.55814 7.33301 8.13421 7.5086 7.82165 7.82116C7.50909 8.13372 7.3335 8.55765 7.3335 8.99967C7.3335 9.4417 7.50909 9.86562 7.82165 10.1782C8.13421 10.4907 8.55814 10.6663 9.00016 10.6663C9.44219 10.6663 9.86611 10.4907 10.1787 10.1782C10.4912 9.86562 10.6668 9.4417 10.6668 8.99967Z" stroke="#002B2E" stroke-width="1.25" stroke-linecap="round" stroke-linejoin="round"/>
</svg>
