<svg width="107" height="39" viewBox="0 0 107 39" fill="none" xmlns="http://www.w3.org/2000/svg">
<path d="M28.0231 1.00851C29.3747 2.24604 29.9987 4.30099 30.2349 6.27091C30.3206 7.33141 30.3234 8.39499 30.3272 9.45968C30.3281 9.68636 30.3291 9.91303 30.3301 10.1466C30.3208 11.4179 30.2239 12.6047 30.0141 13.8501C29.8743 14.7413 29.8169 15.6381 29.756 16.5411C29.7276 16.9409 29.6991 17.3407 29.6705 17.7404C29.6492 18.0413 29.6492 18.0413 29.6275 18.3483C29.5724 19.097 29.509 19.8445 29.4454 20.5923C28.7923 26.0509 28.7923 26.0509 29.6698 31.3242C30.2481 31.9135 30.6413 31.9026 31.3833 31.8419C32.0487 31.7239 32.6075 31.5011 33.2044 31.1433C33.3778 31.0393 33.5512 30.9354 33.7298 30.8283C35.3204 29.8055 36.6631 28.5258 38.0407 27.1362C38.5566 26.6226 39.0862 26.1308 39.6163 25.6384C40.4191 24.889 41.2029 24.1179 41.9763 23.3253C42.6481 22.637 43.3245 21.9681 44.0379 21.3425C44.5524 20.8878 45.0584 20.4201 45.5648 19.9526C45.6591 19.8657 45.7535 19.7788 45.8507 19.6892C46.2723 19.3001 46.6914 18.9078 47.1064 18.5085C50.5813 15.186 55.3453 11.9111 59.9295 12.1217C60.8083 12.2725 61.5652 12.6422 62.3433 13.1555C62.3433 13.2919 62.3433 13.4284 62.3433 13.569C62.4429 13.6159 62.5425 13.6628 62.6451 13.7111C63.905 14.5924 64.484 16.6959 64.8493 18.3203C65.0387 19.3046 65.1736 20.2994 65.3068 21.2965C65.3473 21.5841 65.388 21.8716 65.429 22.159C65.5103 22.7301 65.5905 23.3014 65.67 23.8728C65.7941 24.7577 65.925 25.641 66.0605 26.5235C66.1003 26.7849 66.1402 27.0462 66.1813 27.3154C66.4687 28.9507 66.8494 30.3751 67.8608 31.5568C69.1377 32.0672 70.0838 31.7003 71.2735 31.0633C72.2459 30.4767 73.1569 29.7885 74.0679 29.0757C74.2383 28.9432 74.4088 28.8108 74.5845 28.6743C75.8266 27.6951 77.0354 26.6627 78.2412 25.621C78.7563 25.1768 79.2733 24.7359 79.79 24.2945C80.4982 23.6892 81.202 23.078 81.9022 22.4595C82.2212 22.1827 82.5409 21.9071 82.8613 21.6325C82.9565 21.5503 83.0517 21.4682 83.1499 21.3836C85.5367 19.3423 88.2761 17.4009 91.3098 17.7041C92.6935 18.0345 93.9212 18.6736 95.1785 19.4228C95.352 19.524 95.5255 19.6253 95.7042 19.7297C96.5932 20.25 97.4766 20.7826 98.3575 21.3223C99.6864 22.147 99.6864 22.147 101.138 22.4595C101.138 22.2548 101.138 22.0501 101.138 21.8392C100.91 21.771 100.683 21.7028 100.448 21.6325C100.448 21.7689 100.448 21.9054 100.448 22.046C100.103 21.8392 100.103 21.8392 99.8985 21.3869C99.5486 20.7359 99.1642 20.3515 98.6585 19.8807C98.1771 19.3368 98.0434 18.876 97.9911 18.0918C98.0342 17.4973 98.0342 17.4973 98.379 17.0838C99.0254 17.101 99.3373 17.2132 99.8338 17.717C100.071 18.0432 100.306 18.3725 100.525 18.7169C101.685 20.4711 103.457 21.422 105.276 21.8392C105.534 21.8486 105.793 21.8493 106.052 21.8392C106.251 21.8392 106.45 21.8392 106.655 21.8392C106.769 22.0439 106.883 22.2486 107 22.4595C106.592 23.2535 106.189 23.4907 105.47 23.8163C104.782 24.1313 104.181 24.4867 103.552 24.9406C103.438 24.9406 103.324 24.9406 103.207 24.9406C103.207 25.077 103.207 25.2135 103.207 25.3541C102.898 25.6368 102.898 25.6368 102.485 25.9485C101.717 26.5437 101.021 27.148 100.373 27.9256C99.8904 28.5039 99.4538 29.0156 98.8963 29.4892C98.4006 29.4504 98.4006 29.4504 98.0342 29.2824C97.942 28.4139 97.8941 27.8946 98.2908 27.1406C98.5026 26.8272 98.72 26.519 98.9434 26.2174C99.2584 25.7415 99.4207 25.3052 99.586 24.7338C98.5991 24.3333 97.6146 23.9357 96.6117 23.5966C95.9767 23.3705 95.4138 23.0872 94.8289 22.7171C94.2519 22.3594 93.6651 22.0282 93.0771 21.6971C92.965 21.633 92.8528 21.569 92.7372 21.503C91.9397 21.0544 91.2831 20.7765 90.4046 20.7537C90.2828 20.7484 90.161 20.7431 90.0355 20.7376C88.8214 20.9207 87.7976 21.6696 86.773 22.4207C86.515 22.6068 86.2568 22.7925 85.9985 22.978C85.8745 23.0671 85.7506 23.1562 85.6228 23.2479C85.1726 23.5656 84.7135 23.8603 84.2514 24.1523C83.4521 24.6638 82.7266 25.2627 81.9985 25.9081C81.6543 26.1811 81.6543 26.1811 81.3095 26.1811C81.3095 26.3176 81.3095 26.454 81.3095 26.5946C81.0207 26.8842 80.7199 27.1568 80.4151 27.4216C80.2243 27.5889 80.0337 27.7564 79.8433 27.924C79.7439 28.0111 79.6445 28.0982 79.5421 28.1879C79.0544 28.6204 78.577 29.0685 78.0982 29.5151C71.8694 35.2796 71.8694 35.2796 68.4925 35.1427C67.1415 34.9337 65.9684 34.0404 65.1021 32.7973C64.3844 31.4179 64.01 29.9754 63.7308 28.4013C63.7016 28.2406 63.6725 28.08 63.6425 27.9144C63.2894 25.9381 62.993 23.9482 62.7007 21.9578C62.3038 18.4273 62.3038 18.4273 60.6569 15.6373C59.0512 14.7662 57.1413 15.6348 55.5872 16.3204C54.8291 16.667 54.1012 17.0575 53.3775 17.4973C53.2773 17.5579 53.177 17.6184 53.0738 17.6808C50.9808 18.9531 49.1627 20.4753 47.3428 22.2527C47.0701 22.5159 46.7971 22.7786 46.5238 23.041C46.3825 23.1769 46.2411 23.3128 46.0955 23.4529C45.7432 23.7882 45.3896 24.1208 45.034 24.4511C43.9547 25.4558 42.9044 26.4701 41.9076 27.5937C41.444 28.0803 40.9591 28.5143 40.4642 28.9536C39.9963 29.3775 39.5463 29.8245 39.0954 30.2738C37.9284 31.4355 36.7573 32.4968 35.4459 33.4176C35.3259 33.5122 35.2059 33.6068 35.0822 33.7043C33.691 34.7485 31.5705 35.5906 29.9197 35.2097C28.7547 34.731 27.8273 33.8307 27.1698 32.5906C26.3755 30.5777 26.1819 28.8108 26.2237 26.6218C26.2322 26.1678 26.2343 25.7142 26.2353 25.26C26.2459 23.6727 26.3418 22.1497 26.5676 20.5821C26.6917 19.6998 26.7588 18.8145 26.8249 17.9238C26.9108 16.7725 27.0242 15.6384 27.1778 14.4969C27.3715 12.9035 27.3946 11.3361 27.3871 9.72943C27.3853 9.2491 27.3871 8.76893 27.3893 8.2886C27.3891 7.97739 27.3887 7.66618 27.388 7.35497C27.389 7.14396 27.389 7.14396 27.3901 6.92869C27.3799 5.66105 27.2469 4.50701 26.6525 3.4379C25.8763 2.81736 25.3179 2.80716 24.411 3.02439C21.5267 4.1422 19.134 6.33219 16.927 8.76188C16.6522 9.02032 16.6522 9.02032 16.3073 9.02032C16.3073 9.15678 16.3073 9.29324 16.3073 9.43384C16.1935 9.43384 16.0797 9.43384 15.9625 9.43384C15.9625 9.5703 15.9625 9.70675 15.9625 9.84735C15.7214 10.1244 15.7214 10.1244 15.3806 10.4547C13.4466 12.429 11.4189 15.1617 10.2726 17.9108C10.1588 17.9108 10.045 17.9108 9.9278 17.9108C9.8878 18.0489 9.84779 18.187 9.80657 18.3292C9.52144 19.114 9.14963 19.8027 8.76397 20.5211C8.17607 21.6331 7.61318 22.7479 7.09972 23.9124C6.89141 24.3772 6.67785 24.8341 6.45719 25.2903C5.5338 27.2132 4.71274 29.1815 3.93622 31.1949C3.79901 31.5507 3.79901 31.5507 3.65903 31.9137C2.50437 34.8632 2.50437 34.8632 1.56546 37.9145C1.30683 38.5865 1.30683 38.5865 0.757239 38.8966C0.597212 38.9307 0.437185 38.9649 0.272309 39C-0.215644 37.7903 0.0371759 36.9761 0.369295 35.7694C0.434806 35.5132 0.434806 35.5132 0.50164 35.2517C0.871198 33.8453 1.34263 32.4988 1.82408 31.1433C1.97461 30.707 2.1248 30.2706 2.27467 29.8341C3.12574 27.3746 3.98866 24.9745 5.10006 22.6662C5.18879 22.4791 5.27753 22.292 5.36896 22.0993C6.89928 18.8747 8.47951 15.8217 10.4451 12.9487C10.6897 12.5829 10.934 12.2168 11.1778 11.8503C11.3934 11.5272 11.6089 11.2042 11.8244 10.8811C11.9444 10.6906 12.0645 10.5 12.1881 10.3037C12.2957 10.1531 12.4033 10.0025 12.5141 9.84735C12.6279 9.84735 12.7417 9.84735 12.8589 9.84735C12.8947 9.73728 12.9305 9.6272 12.9674 9.51379C13.2994 8.82065 13.7559 8.29719 14.2275 7.74102C14.3277 7.6221 14.4279 7.50318 14.5312 7.38066C15.9843 5.67744 17.5816 4.22273 19.2385 2.81763C19.4232 2.65172 19.4232 2.65172 19.6116 2.48246C22.0506 0.373793 25.3272 -1.0646 28.0231 1.00851Z" fill="#030303"/>
</svg>
