<svg id="Layer_1" data-name="Layer 1" xmlns="http://www.w3.org/2000/svg" viewBox="0 0 1000 1000"><defs><style>.cls-1{fill:#020202;}</style></defs><path class="cls-1" d="M767,561.48l10.71-21.42h9.83l-16.51,30v17.76h-8.94V569.92l-16.38-30h10.58ZM519.71,539.93h-9.58l17,48.26H537l17.39-48.26h-9.58l-12.47,37.8Zm-110.63,0h-8.94v28.48c0,13.86,5.79,20.66,19.28,20.66s19.27-6.8,19.27-20.66V539.93h-8.94v28.73c0,8.82-3.53,12.09-10.33,12.09s-10.21-3.27-10.21-12.09V539.93Zm265.73,14,7.18-5.55c-4-6.55-10.08-9.7-19.53-9.7-12,0-17.89,6.18-17.89,14.24,0,19.66,27.47,11.34,27.59,21.54.13,4.41-3.27,6.56-9.45,6.56-5.54,0-9.57-1.89-12.47-6.68l-6.8,5.79c4.53,6.81,11.34,8.82,18.77,8.82,12.85,0,19.15-5.67,19.28-15.11.25-18.15-27.47-11.22-27.6-21.17-.12-4,3.15-6,8.7-6a13.31,13.31,0,0,1,12.22,7.31m-217.6-14h-8.82v47.88H457l-.38-33,20,33h8.82V539.93h-8.57l.38,33.14Zm135.7,47.88v-8.06H568v-12h22.8V560H568V548.12h24.94v-8.19H559.15v47.88Zm126.38,0h8.94V548.12H743v-8.06h-38.3v8.06h14.74v39.69Zm-20.41-47.88h-8.82v47.88h8.82Zm-195,0H495v47.88h8.82Zm136.08,47.88H629l-10.46-16.76H610.3v16.76h-8.82V539.93H616.1c12.72,0,20.28,4.54,20.28,15.5,0,6.68-2.9,11.34-8.57,13.73Zm-23.44-24.57c6.68,0,10.46-2.27,10.46-7.81s-3.4-7.69-10.33-7.69h-6.17v15.5h6M611.94,474h-12.1v47.75h8.57L608,487.64l11.09,30h8.44l11.09-30-.38,34.15h8.57V474H635.63l-12.1,32.63Zm-211.8,48.38a23.48,23.48,0,0,0,5.29.5c11.34,0,16.76-5.29,16.76-19.27V473.91h-8.82v29.74c0,8.69-2.52,11-8.19,11a24.87,24.87,0,0,1-4.92-.63v8.44ZM870.86,487.9l7.18-5.55c-4-6.55-10.08-9.7-19.53-9.7-12,0-17.89,6.17-17.89,14.24,0,19.65,27.47,11.34,27.59,21.54.13,4.41-3.27,6.55-9.45,6.55-5.54,0-9.57-1.89-12.47-6.67l-6.8,5.79c4.53,6.81,11.34,8.82,18.77,8.82,12.85,0,19.15-5.67,19.28-15.12.25-18.14-27.47-11.21-27.6-21.16-.12-4,3.15-6.05,8.7-6.05a13.18,13.18,0,0,1,12.22,7.31M538.23,474h-8.82v47.75H538l-.38-33,20,33h8.82V474h-8.56l.37,33.13Zm-47.12,0h-8.82v47.75h8.82V501.25h20.53v20.54h9V474h-9v19.15H491.11Zm-38.81-1.39c12.85,0,22.55,7.06,22.55,25.2S465,522.92,452.3,522.92s-22.55-7-22.55-25.07,9.7-25.2,22.55-25.2m0,42.21c7.94,0,13.23-5.17,13.23-17s-5.29-17-13.23-17S439,486,439,497.85s5.29,17,13.35,17m274.42-42.21c12.85,0,22.55,7.06,22.55,25.2s-9.82,25.07-22.55,25.07-22.55-7-22.55-25.07,9.7-25.2,22.55-25.2m0,42.21c7.94,0,13.23-5.17,13.23-17s-5.29-17-13.23-17-13.36,5.17-13.36,17,5.42,17,13.36,17m-50.65-42.21c12.85,0,22.55,7.06,22.55,25.2s-9.82,25.07-22.55,25.07-22.55-7-22.55-25.07,9.82-25.2,22.55-25.2m0,42.21c7.94,0,13.23-5.17,13.23-17s-5.29-17-13.23-17-13.36,5.17-13.36,17,5.42,17,13.36,17m158.25,6.93v-8.07h-25v-12h22.81v-7.82H809.37V482.1h25V474H800.55v47.75Zm-39.69,0h-11L773.21,505H765v16.76H756.2V474h14.62c12.72,0,20.28,4.53,20.28,15.49,0,6.68-2.89,11.34-8.56,13.74ZM771.2,497.22c6.67,0,10.45-2.27,10.45-7.81s-3.4-7.69-10.33-7.69h-6.17v15.5h6.05m-70.94-90.59c12.85,0,22.55,7.05,22.55,25.2S714,456.9,701.27,456.9s-23.69-7.06-23.69-25.07,9.83-25.2,22.68-25.2m0,42.21c7.94,0,13.23-5.17,13.23-17s-5.29-17-13.23-17-13.35,5.16-13.35,17,5.29,17,13.35,17m-50.65-42.21c12.85,0,22.55,7.05,22.55,25.2s-9.82,25.07-22.55,25.07-22.55-7.06-22.55-25.07,9.83-25.2,22.55-25.2m0,42.21c7.94,0,13.23-5.17,13.23-17s-5.29-17-13.23-17-13.35,5.16-13.35,17,5.41,17,13.35,17M534.7,455.77V447.7h-25v-12h22.81v-7.81H509.75V416.08h25V408H500.94v47.76ZM461.12,408h-9.58l17,48.26h9.83L495.77,408h-9.58l-12.47,37.8Zm278.07,0h-8.82v47.76h29.24V447.7H739.19Zm-330.11,0h-8.82v47.76H429.5V447.7H409.08Zm35.79,0h-8.82v47.76h8.82Zm136.58,47.76h-11L560,439h-8.19v16.76H543V408h14.49c12.72,0,20.28,4.54,20.28,15.5,0,6.68-2.9,11.34-8.56,13.74ZM558,431.32c6.68,0,10.46-2.26,10.46-7.81s-3.4-7.68-10.33-7.68H552v15.49h6M602.11,408c12.73,0,20.29,4.79,20.29,16.13,0,10.59-6.68,16.13-19.53,16.13h-6.43v15.62h-8.82V408.14h14.49m.5,24.32c6.68,0,10.46-2.4,10.46-8.44,0-5.8-3.4-8.32-10.33-8.32h-6.17v16.63h6M240.38,473.66c-42.34-28.73-42-51.53-42.47-55.94,0,0-25.32-9.83-25.32-9.71,1.64,2.9,9.58,26.46,50.15,60,11.08,9.2,32.38,24.57,31.87,39.69-.25,6.17-5.16,10.33-14.11,10.33-23.81,0-37.29-23.31-50.77-47.12-16.38-29.23-34.28-56.45-65.9-66.28-1-.25-1.51-.25-1.76.13s-.13.75,1.13,1.51c26,16.51,38.18,38.81,51.41,61.74,8.31,14.49,16.12,28.22,26.33,38.3,11.46,11.34,24.32,17,40.19,17,16.51,0,25.58-6.43,25.58-18,.12-12.47-14.74-23.81-26.33-31.62m72.07,23.81c-1.14-.38-1.64-.25-1.89.25s.25,1.14.88,1.52c13.35,9.45,19.65,20.66,19.65,34.39,0,10.84-4.91,38.81-52.79,72.2-1.76,1.13-2.9,2-2.39,2.77.12.25.88.5,2.14-.13,31.25-14.49,63.12-42.83,63.12-75.85-.12-19.53-17.64-31.37-28.72-35.15m54.93-72.19a41.69,41.69,0,0,1-8.69,8.69c-6.93,4.79-15.5,7.06-17.9-2.77l-12.72,2c-2.52,3-5.17,6.3-7.44,9.45,7.94,7.18,13.49,19.41,13,20.16-.12.13-.5-.38-1.89-1.51a92.37,92.37,0,0,0-16.5-10.84,108.58,108.58,0,0,0-17.64,38.31c-3.15,13.1-3,25.57,0,39.43l-6.05,8.45c-2.65-9.71-5.42-21.17-3.53-35.41,2.14-16.25,10.08-33.64,23.69-52.54l-.5-.25c-8.82-4-29-14-64-7.56,0,0-1,.13-1.51.25h0c-1.26,0-7.69-8.19-12.85-15l-.13-.13a21.39,21.39,0,0,1-3.91,0,33.56,33.56,0,0,1-4.78-5.29c8.56,3.91,13.1,2.27,19.9,2.52,5.42.13,15.75,1.64,19.15,9.83,5.42,0,22.05.12,33.14,1.76.76.13,3.15.63,3.15.63a135.5,135.5,0,0,0-20.41-12.72c-8.57-4.41-15.75-9.08-19.15-16.76-13.48-5.67-47.25-6.81-57.83,3.15,0,0-.13.12-.13,0-25.2-8.7-35.78-13.86-35.78-14s33.51,2.65,47.5,2.65c.38,0,33.64,0,45.73,4.41.13,0,.13,0,.26.12,9.7,13.61,31,13.49,59,37.93,2.27-2.9,5-5.92,7.69-8.69l1.64-13.36a7.85,7.85,0,0,1-7.56-5.92c-1-4.29,1.13-9.58,6.3-16.26a33.66,33.66,0,0,1,4.78-4.91,30.93,30.93,0,0,0,2.52,9.07c1,2.77,6.56,15.63-4.78,17.89l-.63,11.09c5-5.29,11.21-11.09,17.13-16.25a8.38,8.38,0,0,1-1.51-9.33c2.14-3.9,7.06-6.3,15.37-7.81a37.4,37.4,0,0,1,7.06-.5c-4.41,4.66-7.06,25.95-20,18.27-5.54,5.42-11.21,11.59-16,17.26l10.84-1c1.38-11.59,14.24-7.31,17-6.42a26.87,26.87,0,0,0,9.07,1.89M255.62,432A33.9,33.9,0,0,0,237.86,426c1.51,3,5.41,10,11.71,10.84.38-.13,5.92-.76,6.05-4.92"/></svg>