<svg width="20" height="115" viewBox="0 0 20 115" fill="none" xmlns="http://www.w3.org/2000/svg">
<path d="M0.306482 93.532C0.371599 95.2361 0.773705 96.4906 1.3796 97.9881C1.54656 98.4046 1.71353 98.8211 1.88556 99.2502C2.06116 99.6802 2.23676 100.11 2.41769 100.553C2.58894 100.979 2.76019 101.405 2.93663 101.843C3.27322 102.678 3.61134 103.513 3.95109 104.346C4.23497 105.043 4.51686 105.741 4.79521 106.441C5.55074 108.333 6.38462 110.109 7.32238 111.857C7.51405 112.232 7.51405 112.232 7.70961 112.615C8.66687 114.403 8.66687 114.403 9.66154 114.855C9.96606 114.874 9.96606 114.874 10.2767 114.893C12.0096 112.466 13.3159 109.679 14.6597 106.882C14.814 106.56 14.9683 106.239 15.1272 105.908C15.4345 105.267 15.7408 104.625 16.046 103.982C16.7124 102.588 17.3848 101.229 18.1518 99.9233C18.7549 98.8645 18.9948 98.2446 19.104 96.9551C18.2584 96.1935 18.2584 96.1935 17.402 96.1726C17.3113 95.9259 17.2207 95.6791 17.1273 95.4249C15.0516 98.5513 13.2925 101.615 11.8438 105.299C11.5724 104.065 11.5729 102.993 11.6257 101.715C11.6424 101.293 11.6591 100.871 11.6762 100.436C11.6959 99.9804 11.7156 99.5243 11.7359 99.0545C11.7552 98.5804 11.7745 98.1062 11.7943 97.6177C11.8354 96.6105 11.8774 95.6035 11.9204 94.5964C11.9745 93.3274 12.0268 92.0582 12.0784 90.789C12.3346 84.4677 12.3346 84.4677 12.6784 78.1537C12.9639 73.3814 13.0211 68.5894 13.1282 63.806C13.3011 56.1094 13.4756 48.4207 13.9016 40.7394C14.3523 32.5951 14.5272 24.4455 14.6673 16.2839C14.6854 15.2744 14.7056 14.2651 14.7265 13.2557C14.7591 11.6606 14.7858 10.0655 14.808 8.47001C14.8171 7.8743 14.8281 7.27864 14.8411 6.68305C14.8587 5.86046 14.869 5.03822 14.8776 4.21541C14.8889 3.51947 14.8889 3.51947 14.9004 2.80948C14.7551 1.43415 14.4678 0.994753 13.6559 0.124948C12.8028 0.470887 12.8028 0.470887 11.9324 0.823814C11.8331 1.51605 11.7338 2.20829 11.6345 2.90053C11.5793 3.28602 11.524 3.67151 11.467 4.06868C11.4109 4.45988 11.3548 4.85108 11.297 5.25413C11.2433 5.6022 11.1896 5.95027 11.1344 6.30889C9.18768 20.8739 9.92346 36.9206 9.61469 51.6592C9.58653 52.9995 9.55801 54.3397 9.52941 55.6799C9.15689 73.1798 8.88068 90.681 8.66071 108.185C7.97929 107.267 7.82222 106.516 7.50666 105.309C4.67502 94.9653 4.67502 94.9653 2.31547 92.8401C1.58532 92.7297 1.58532 92.7297 0.888158 92.8052C0.696205 93.0451 0.504252 93.2849 0.306482 93.532Z" fill="#4A787B"/>
</svg>
